<?xml version="1.0" encoding="UTF-8"?>
<svg width="166" height="98" viewBox="0 0 166 98" fill="none" xmlns="http://www.w3.org/2000/svg">
<path d="M79 95.35C60.16 95.23 23.72 95.35 23.51 96.56C23.3 97.77 71.45 97.56 79 97.56" fill="url(#paint0_linear)"/>
<path d="M129.32 45.51C127.03 46.81 126.06 47.18 124 46.15C121.59 44.95 119.11 41.52 119.11 41.52L117.32 42.38C117.72 45.67 121.38 49.13 124.26 50.02C127.54 51.02 132.47 51.6 132.9 47.57C132.914 47.0229 132.73 46.4893 132.38 46.0682C132.031 45.647 131.54 45.367 131 45.28C130.721 45.1856 130.425 45.1573 130.133 45.1972C129.841 45.2371 129.563 45.3442 129.32 45.51Z" fill="#2F4367"/>
<path d="M118.919 40.5371C118.938 39.8912 118.426 39.3516 117.775 39.3318C117.123 39.312 116.579 39.8195 116.56 40.4654C116.54 41.1113 117.052 41.6509 117.704 41.6707C118.355 41.6905 118.899 41.1829 118.919 40.5371Z" fill="#F7D4BC"/>
<path d="M63.6001 95.26L65.1801 95.35L65.4001 91.77L63.8201 91.68L63.6001 95.26Z" fill="#F7D4BC"/>
<path d="M68.1201 96.6C68.1494 96.5536 68.165 96.4999 68.165 96.445C68.165 96.3901 68.1494 96.3364 68.1201 96.29C66.7765 95.3468 65.1985 94.7931 63.5601 94.69C63.4893 94.6925 63.4221 94.7217 63.372 94.7718C63.3219 94.8219 63.2926 94.8892 63.2901 94.96L63.2401 96.3C63.236 96.3355 63.2389 96.3715 63.2487 96.4058C63.2586 96.4402 63.2751 96.4722 63.2974 96.5001C63.3198 96.528 63.3474 96.5512 63.3788 96.5684C63.4101 96.5855 63.4446 96.5963 63.4801 96.6L67.9201 96.78C67.9667 96.7711 68.01 96.7496 68.0452 96.7179C68.0805 96.6862 68.1064 96.6454 68.1201 96.6Z" fill="#253655"/>
<path d="M69.0501 76.2C68.7232 82.0906 67.7882 87.9317 66.2601 93.63C65.7356 93.8881 65.1556 94.0131 64.5713 93.9939C63.987 93.9747 63.4165 93.812 62.9101 93.52C64.4101 87.8 62.9101 81.72 61.4601 75.95C60.3189 71.7776 59.7206 67.4754 59.6801 63.15C59.6361 62.1152 59.8455 61.0854 60.2901 60.15C61.6201 57.63 65.5401 57.97 67.0601 60.15C67.6185 61.1919 67.9812 62.3273 68.1301 63.5C68.5678 65.4559 68.8619 67.4412 69.0101 69.44C69.1802 71.6897 69.1936 73.9485 69.0501 76.2Z" fill="#253753"/>
<path d="M53.9102 95.45L55.4801 95.65L55.9501 92.1L54.3802 91.9L53.9102 95.45Z" fill="#F7D4BC"/>
<path d="M58.19 96.94C58.2191 96.8917 58.2344 96.8364 58.2344 96.78C58.2344 96.7236 58.2191 96.6683 58.19 96.62C56.877 95.6314 55.316 95.0257 53.6799 94.87C53.6083 94.87 53.5397 94.8984 53.489 94.9491C53.4384 94.9997 53.41 95.0684 53.41 95.14L53.31 96.47C53.3012 96.5413 53.3202 96.6132 53.363 96.671C53.4058 96.7287 53.4692 96.7677 53.5399 96.78L57.9799 97.1C58.0264 97.0956 58.0707 97.0783 58.1078 97.05C58.1449 97.0217 58.1734 96.9836 58.19 96.94Z" fill="#253655"/>
<path d="M61 76.92C60.0792 82.7587 58.544 88.4839 56.42 94C55.8812 94.1465 55.3184 94.183 54.7652 94.1074C54.212 94.0318 53.6797 93.8457 53.2 93.56C54.82 88.02 54.26 81.81 53.45 75.93C52.7433 71.6574 52.5921 67.3114 53 63C53.0605 61.9701 53.373 60.9708 53.91 60.09C55.49 57.72 59.35 58.44 60.64 60.78C61.0959 61.871 61.3435 63.0378 61.37 64.22C61.6048 66.2108 61.695 68.2161 61.64 70.22C61.5823 72.4655 61.3685 74.7042 61 76.92Z" fill="#2F4367"/>
<path d="M73.0801 44.29C73.5601 43.02 74.6101 36.12 74.6101 36.12L71.4601 35.81C71.4601 35.81 70.4601 41.27 69.5201 42.75C67.5901 45.75 63.1201 46.05 63.1201 46.06L62.4501 46.17L54.1501 47.31C52.6201 47.39 49.6701 47.31 48.0301 45.97C46.6601 44.82 44.2701 39.32 44.2701 39.32L41.3601 40.53C42.3601 42.53 43.3001 45.82 44.3601 47.81C45.9201 50.81 48.4301 52.03 49.8801 55.09C50.2701 55.8892 50.5751 56.7271 50.7901 57.59C51.6201 61.23 51.4601 65.06 51.4801 68.76C51.4716 68.9533 51.4988 69.1465 51.5601 69.33C52.2201 70.87 55.9601 70.61 57.2801 70.61C59.5303 70.6041 61.7722 70.3356 63.9601 69.81C65.0401 69.56 66.1001 69.25 67.1601 68.93C67.8801 68.72 68.7901 68.48 69.0501 67.7C69.1179 67.1062 69.0909 66.5053 68.9701 65.92C68.9101 65.18 68.8401 64.45 68.7801 63.71C68.5301 60.86 68.0501 57.96 68.0701 55.09C68.0416 53.7841 68.3082 52.4886 68.8501 51.3C69.376 50.1946 70.0488 49.1653 70.8501 48.24C71.7907 47.0449 72.5427 45.7128 73.0801 44.29Z" fill="#6F878F"/>
<path d="M59.0602 44.71C58.2713 44.9349 57.4257 44.8421 56.7043 44.4515C55.9829 44.0609 55.443 43.4035 55.2002 42.62C55.0888 42.2325 55.0567 41.8266 55.1058 41.4265C55.1548 41.0264 55.284 40.6402 55.4856 40.2911C55.6872 39.942 55.9571 39.6372 56.2792 39.3947C56.6013 39.1523 56.9689 38.9772 57.3602 38.88C58.153 38.6564 59.002 38.7533 59.7241 39.1499C60.4462 39.5464 60.9835 40.2109 61.2202 41C61.3269 41.3855 61.3554 41.7884 61.3042 42.1851C61.2529 42.5818 61.1228 42.9642 60.9215 43.3099C60.7203 43.6556 60.4519 43.9575 60.1323 44.198C59.8126 44.4384 59.4481 44.6125 59.0602 44.71Z" fill="#845739"/>
<path d="M61.26 39.51C61.59 38.65 60.45 36.16 58.98 36.43C58.14 36.59 58.49 37.51 57.98 37.72C57.47 37.93 56.98 37.36 56.28 37.72C55.58 38.08 55.87 38.91 55.46 39.06C55.05 39.21 54.68 38.5 53.93 38.83C52.73 39.36 53.41 42.11 54.33 43.09C55.0295 43.7602 55.8854 44.2449 56.82 44.5C56.99 44.5 56.09 43.5 56.67 43.11C57.07 42.86 57.33 43.24 57.43 43.05C57.53 42.86 56.69 42.35 57.12 41.66C57.55 40.97 59.12 41.45 59.9 41.03C60.5169 40.6977 60.9981 40.1599 61.26 39.51Z" fill="#253655"/>
<path d="M61.1701 56.73L62.8101 46.05L55.0601 47.29L61.1701 56.73Z" fill="#F3F5F7"/>
<path d="M72.9901 35.19C73.6418 35.19 74.1701 34.6751 74.1701 34.04C74.1701 33.4049 73.6418 32.89 72.9901 32.89C72.3384 32.89 71.8101 33.4049 71.8101 34.04C71.8101 34.6751 72.3384 35.19 72.9901 35.19Z" fill="#845739"/>
<path d="M62.3201 46.62L61.37 46.01L58.79 46.7L60.12 48.16L62.3201 46.62Z" fill="#E2E6E9"/>
<path d="M42.07 39.21C42.6885 39.21 43.19 38.7264 43.19 38.13C43.19 37.5335 42.6885 37.05 42.07 37.05C41.4514 37.05 40.95 37.5335 40.95 38.13C40.95 38.7264 41.4514 39.21 42.07 39.21Z" fill="#845739"/>
<path d="M55.3801 47.48L56.1301 46.65L58.8101 46.7L57.9101 48.42L55.3801 47.48Z" fill="#E2E6E9"/>
<path d="M53.9399 63.86L54.1699 67.53C54.9608 67.8931 55.8197 68.084 56.6899 68.09C57.499 68.0938 58.2986 67.9161 59.0299 67.57L58.9399 63.73C58.1107 64.008 57.2443 64.1597 56.3699 64.18C55.5498 64.1744 54.7336 64.0669 53.9399 63.86Z" fill="#849DA8"/>
<path d="M64.6301 62.75L65.2201 66.38C65.9808 66.5307 66.7608 66.5577 67.5301 66.46C69.0201 66.29 69.0201 65.88 69.0201 65.88L68.6401 62C68.6401 62 68.5101 62.28 67.1601 62.52C66.3245 62.6655 65.4783 62.7424 64.6301 62.75Z" fill="#849DA8"/>
<path d="M62.4601 70.19L61.75 70.29C62.24 65.29 62.1 58.46 58.42 52.83C57.99 52.18 57.57 51.48 57.16 50.83C56.41 49.6 55.64 48.34 54.79 47.22L55.5201 47.12C56.3112 48.2093 57.0423 49.341 57.7101 50.51C58.1201 51.18 58.5401 51.87 58.9601 52.51C62.7401 58.28 63.0001 65.11 62.4601 70.19Z" fill="#849DA8"/>
<path d="M61.34 57.5L60.7 57.4L62.5099 46.02H63.1799L61.34 57.5Z" fill="#849DA8"/>
<path d="M79.36 6L29.02 12.49L32.7 38.61L83.04 32.12L79.36 6Z" fill="#5A80F9"/>
<path d="M79.36 6L29 12.49L32.68 38.61L83 32.12L79.36 6ZM79.79 24.23C78.053 24.435 76.4489 25.2619 75.2743 26.5579C74.0996 27.8539 73.4338 29.5312 73.4 31.28L41.77 35.36C41.2451 33.6747 40.1411 32.2294 38.6533 31.2796C37.1654 30.3298 35.3897 29.9368 33.64 30.17L32.26 20.37C33.9895 20.1682 35.5881 19.3491 36.762 18.0631C37.9359 16.7771 38.6063 15.1107 38.65 13.37L70.29 9.29C70.8076 10.9778 71.9086 12.4266 73.3961 13.3773C74.8837 14.3281 76.6608 14.719 78.41 14.48L79.79 24.23Z" fill="#485FC4"/>
<path d="M60.4533 22.6158C60.6243 20.2416 58.7803 18.1742 56.3345 17.998C53.8886 17.8218 51.7673 19.6036 51.5963 21.9778C51.4253 24.352 53.2693 26.4195 55.7151 26.5957C58.161 26.7719 60.2823 24.99 60.4533 22.6158Z" fill="#485FC4"/>
<path d="M29.71 37.28L29.91 37.45C31.21 38.68 31.75 41.09 33.22 42.13C32.4009 42.9943 31.3649 43.6228 30.22 43.95C30.1914 43.9677 30.1585 43.9771 30.125 43.9771C30.0914 43.9771 30.0585 43.9677 30.03 43.95C29.9946 43.9155 29.9732 43.8692 29.97 43.82C29.8289 42.8556 29.5423 41.9183 29.12 41.04C28.83 40.58 28.47 40.17 28.12 39.72C27.7817 39.2866 27.5861 38.7591 27.56 38.21C27.5564 37.9453 27.6207 37.684 27.7467 37.4512C27.8728 37.2184 28.0563 37.0217 28.28 36.88C28.532 36.8082 28.799 36.8076 29.0514 36.8782C29.3038 36.9488 29.5317 37.0878 29.71 37.28Z" fill="#6F878F"/>
<path d="M30.5701 46.67V43.32C33.4801 42.49 34.3701 40.32 35.2801 39.01C37.0001 36.6 37.6901 34.01 38.3401 30.82H39.9501C39.8919 34.4045 38.8281 37.9005 36.8801 40.91C35.0001 43.59 33.1101 46.28 30.5701 46.67Z" fill="#253753"/>
<path d="M31.59 84C32.87 84 33.91 84.4 33.91 84.74C33.91 85.08 32.91 85.26 31.59 85.26C30.27 85.26 29.28 84.98 29.28 84.63C29.28 84.28 30.31 84 31.59 84Z" fill="#485FC4"/>
<path d="M30.58 93.91L29.28 76.27L33.66 76.78L32.47 93.91H30.58Z" fill="#66432F"/>
<path d="M29.28 84.61C29.9697 85.0409 30.7608 85.2826 31.5736 85.3107C32.3864 85.3388 33.1922 85.1523 33.91 84.77L33.19 94.71C33.19 94.71 35.65 95.71 35.3 96.36H31.93L31.22 95.46V96.36H30.45L30.24 95.45L29.28 84.61Z" fill="#253753"/>
<path d="M26.0801 84.48C27.3501 84.6 28.3501 85.1 28.3101 85.48C28.2701 85.86 27.2301 85.89 25.9501 85.76C24.6701 85.63 23.6801 85.25 23.7101 84.91C23.7401 84.57 24.8001 84.35 26.0801 84.48Z" fill="#485FC4"/>
<path d="M24.1001 94.22L24.6501 75.5L29.0201 76.53L25.9901 94.41L24.1001 94.22Z" fill="#66432F"/>
<path d="M23.7101 84.84C24.3554 85.3374 25.1205 85.6558 25.9282 85.7629C26.7359 85.87 27.5575 85.762 28.3101 85.45L26.6201 95.27C26.6201 95.27 28.9801 96.47 28.5601 97.12L25.2101 96.76L24.5901 95.76L24.5001 96.66L23.7401 96.59L23.6201 95.66L23.7101 84.84Z" fill="#253753"/>
<path d="M23.1 66.34L23.16 67.24C23.3192 69.4045 23.1403 71.5805 22.63 73.69C22.2872 74.8494 22.0134 76.0282 21.81 77.22C21.73 77.9 21.53 79.55 22.14 80.08C22.6974 80.3746 23.2931 80.59 23.91 80.72L25.82 81.4C26.6948 81.7324 27.6037 81.9671 28.53 82.1C29.5018 82.1704 30.4786 82.0996 31.43 81.89C32.9025 81.5729 34.3523 81.1586 35.77 80.65C36.93 80.26 37.25 79.88 37.28 78.6C37.35 75.05 35.38 71.73 35.01 68.19C34.9687 66.705 34.8519 65.2231 34.66 63.75C34.4169 62.7545 34.0822 61.7837 33.66 60.85C33.34 60.09 33.25 58.68 32.17 58.85C31.79 58.91 31.4 58.99 31.03 59.08C30.5435 59.2273 30.0449 59.331 29.54 59.39C28.05 59.49 26.54 59.06 25 59.02C24.8892 58.986 24.7708 58.986 24.66 59.02C24.5666 59.082 24.488 59.164 24.43 59.26C23 61.54 23 63.85 23.1 66.34Z" fill="#38517B"/>
<path d="M25.8501 44.02L31.5101 43.78L32.1801 60.41L26.5201 60.65L25.8501 44.02Z" fill="#FDB633"/>
<path d="M23.6301 46.13L24.3501 43.07C21.6101 42.64 19.6101 40.36 18.7101 39.07C17.0101 36.66 16.3501 34.07 15.7101 30.88H14.0801C14.1136 34.4644 15.1531 37.9674 17.0801 40.99C18.9401 43.67 21.0901 45.73 23.6301 46.13Z" fill="#253753"/>
<path d="M29.0477 42.7266C30.2897 42.296 30.9181 40.8556 30.4514 39.5093C29.9847 38.1631 28.5995 37.4207 27.3576 37.8512C26.1157 38.2818 25.4872 39.7222 25.954 41.0685C26.4207 42.4148 27.8058 43.1571 29.0477 42.7266Z" fill="#66432F"/>
<path d="M33.15 44.27L35.64 60.15C35.64 62.46 32.29 62.74 30.21 63.04C29.91 57.04 28.29 51.12 28.62 45.14C28.6146 44.8788 28.6658 44.6195 28.77 44.38C28.9794 44.0675 29.2796 43.8267 29.63 43.69C30.5651 43.2435 31.5946 43.0308 32.63 43.07" fill="#253753"/>
<path d="M23.0001 45.16L22.5801 61.22C22.8801 63.51 26.0301 63.32 28.1401 63.35C27.6701 57.35 28.7001 51.35 27.6101 45.42C27.5948 45.0974 27.4677 44.7902 27.2505 44.5511C27.0333 44.3121 26.7397 44.1561 26.4201 44.11C25.4201 43.75 24.4201 43.42 23.4201 43.11" fill="#253753"/>
<path d="M28.54 38.61C28.2474 39.136 27.913 39.6376 27.54 40.11C27.0295 40.9419 26.7411 41.891 26.7026 42.8663C26.6641 43.8416 26.8767 44.8104 27.32 45.68C26 46.11 24.51 46.39 23.32 45.55C22.4678 45.0567 21.742 44.372 21.2 43.55C22.93 43.34 23.08 41.08 23.08 39.75C23.0162 39.1296 23.0984 38.5029 23.32 37.92C23.574 37.4619 23.9811 37.1079 24.47 36.92C24.9513 36.7417 25.4511 36.6176 25.96 36.55C27.37 36.34 29.39 36.74 28.54 38.61Z" fill="#849DA8"/>
<path d="M16.2269 29.2463C16.3275 28.5912 15.8825 27.9793 15.2329 27.8796C14.5833 27.7798 13.9751 28.23 13.8745 28.8851C13.7739 29.5401 14.219 30.152 14.8686 30.2518C15.5182 30.3515 16.1264 29.9014 16.2269 29.2463Z" fill="#66432F"/>
<path opacity="0.7" d="M162.35 94.29C155.56 94.29 127.45 93.57 127.35 95.29C127.25 97.01 162.46 96.37 162.46 96.37" fill="url(#paint1_linear)"/>
<path d="M131.94 90.82L130.53 91.41L129.17 88.09L130.57 87.5L131.94 90.82Z" fill="#F7D4BC"/>
<path d="M128.38 93.57L132.38 91.98C132.443 91.9477 132.492 91.8925 132.516 91.8257C132.54 91.7588 132.538 91.6853 132.51 91.62L132.02 90.38C131.999 90.313 131.953 90.2567 131.892 90.2231C131.83 90.1895 131.758 90.1812 131.69 90.2C130.22 90.8316 128.964 91.8731 128.07 93.2C128.05 93.2521 128.045 93.3088 128.056 93.3635C128.067 93.4183 128.092 93.469 128.13 93.51C128.161 93.5437 128.201 93.5675 128.246 93.5782C128.29 93.5889 128.337 93.586 128.38 93.57Z" fill="#253753"/>
<path d="M124.32 67.87C124.32 69.18 128.67 69.99 134.04 69.99C139.41 69.99 143.25 70.32 144.04 68.28C144.51 67.06 139.44 65.28 134.04 65.28C128.64 65.28 124.32 66.56 124.32 67.87Z" fill="#253655"/>
<path d="M124 76C123.59 81.66 125.92 84.82 129.08 89.49C129.582 89.7478 130.142 89.8722 130.706 89.8512C131.27 89.8302 131.819 89.6645 132.3 89.37C130.85 83.63 130.05 80.23 132.9 75.02C136.59 68.29 136.58 67.02 136.59 62.85C136.628 61.8178 136.426 60.7909 136 59.85C134.72 57.33 130.95 57.66 129.49 59.85C128.961 60.9024 128.623 62.0398 128.49 63.21C128.06 65.18 124.52 69.32 124 76Z" fill="#6F878F"/>
<path d="M138.79 94.59L137.28 94.73L136.96 91.15L138.47 91.01L138.79 94.59Z" fill="#F7D4BC"/>
<path d="M134.56 96.14L138.83 95.95C138.9 95.94 138.963 95.903 139.006 95.8469C139.049 95.7909 139.069 95.7201 139.06 95.65L139.01 94.31C139.01 94.2401 138.983 94.1729 138.934 94.1225C138.886 94.0721 138.82 94.0426 138.75 94.04C137.167 94.1506 135.648 94.7089 134.37 95.65C134.335 95.6945 134.312 95.7474 134.303 95.8034C134.294 95.8595 134.3 95.9168 134.32 95.97C134.337 96.02 134.369 96.0635 134.412 96.094C134.455 96.1245 134.507 96.1406 134.56 96.14Z" fill="#253753"/>
<path d="M131.78 75.15C132.28 80.8 134.92 87.99 136.58 93.41C137.086 93.5964 137.625 93.6741 138.162 93.6379C138.7 93.6017 139.224 93.4525 139.7 93.2C138.52 87.54 139.48 81.36 140.7 75.53C141.665 71.307 142.102 66.9806 142 62.65C142.012 61.6104 141.779 60.5826 141.32 59.65C139.96 57.17 136.2 57.65 134.81 59.88C134.301 60.9458 133.986 62.0937 133.88 63.27C133.52 65.27 131.72 66.38 131.63 68.39C131.529 70.6441 131.579 72.9025 131.78 75.15Z" fill="#829CA9"/>
<path d="M130.37 45.63C129.145 49.6186 128.274 53.7079 127.77 57.85C127.3 62.3 125.14 65.53 124.32 67.63C124.32 67.63 128.07 65.96 133.53 68.77C136.47 70.29 141.47 68.63 143.07 68.11C143.375 68.0381 143.687 68.0012 144 68C144.32 65.8 142.69 61.69 141.72 57.35C140.85 53.35 140.72 49.16 139.97 47.72C139.97 47.72 137.97 45.32 137.45 45.34L130.37 45.63Z" fill="#253753"/>
<path d="M160.8 47.18L111.87 56.46L116.77 82.91L165.7 73.62L160.8 47.18Z" fill="#20BAFC"/>
<path d="M160.8 47.18L111.87 56.46L116.77 82.91L165.7 73.62L160.8 47.18ZM162.13 65.75C160.408 66.0906 158.865 67.038 157.782 68.4199C156.7 69.8017 156.149 71.5263 156.23 73.28L125.48 79.11C124.933 77.4445 123.801 76.0339 122.293 75.1401C120.785 74.2464 119.004 73.9301 117.28 74.25L115.44 64.33C117.161 63.9875 118.703 63.0396 119.785 61.6581C120.868 60.2767 121.419 58.5532 121.34 56.8L152.09 51C152.637 52.6655 153.769 54.0761 155.277 54.9698C156.785 55.8636 158.567 56.1799 160.29 55.86L162.13 65.75Z" fill="#1790BF"/>
<path d="M138.79 69.44C141.193 69.44 143.14 67.47 143.14 65.04C143.14 62.6099 141.193 60.64 138.79 60.64C136.388 60.64 134.44 62.6099 134.44 65.04C134.44 67.47 136.388 69.44 138.79 69.44Z" fill="#1790BF"/>
<path d="M135.8 49.48C137.17 51.73 138.35 53.42 137.17 55.09C135.852 56.6536 134.188 57.8894 132.31 58.7L133.01 60.7C136.28 60.2 141.49 58.34 141.92 55.35C142.4 52.1 141.78 46.11 137.74 45.8C137.188 45.8015 136.655 46.0061 136.244 46.375C135.833 46.7438 135.571 47.251 135.51 47.8C135.423 48.0831 135.403 48.3828 135.454 48.6747C135.504 48.9667 135.623 49.2426 135.8 49.48Z" fill="#2F4367"/>
<path d="M130.16 43.84C130.231 43.552 130.268 43.2566 130.27 42.96C130.27 38.82 129.98 38.8 130.89 37.87C132.55 36.17 135.6 37.2 136.68 38.02C137.76 38.84 137.51 41.46 137.31 42.66V42.8C137.31 42.8 138.59 45.02 138.31 46.14C138.24 46.47 137.43 46.45 137.2 47.14C136.72 48.47 133.69 50.31 132.04 50.33C129.5 50.33 129.51 45.77 130.16 43.88V43.84Z" fill="#38517B"/>
<path d="M130.29 40.37C130.29 40.37 130.97 40.2 131.16 40.17C131.35 40.14 134.04 40.11 134.05 40.17C134.171 40.8602 134.38 41.5323 134.67 42.17C134.744 42.3121 134.782 42.4699 134.782 42.63C134.782 42.7901 134.744 42.9478 134.67 43.09C134.457 43.4722 134.16 43.8012 133.801 44.0523C133.443 44.3035 133.032 44.4702 132.6 44.54C132.063 44.6248 131.513 44.5148 131.05 44.23C130.17 43.7 130.17 42.43 130.17 41.75C130.16 41.287 130.201 40.8243 130.29 40.37Z" fill="#F7D4BC"/>
<path d="M133.32 48.54C133.067 48.6393 132.795 48.6857 132.523 48.6766C132.251 48.6674 131.984 48.6028 131.738 48.4867C131.492 48.3706 131.272 48.2055 131.092 48.0015C130.911 47.7974 130.775 47.5587 130.69 47.3C130.688 47.2612 130.699 47.2227 130.721 47.191C130.744 47.1593 130.776 47.1363 130.814 47.1257C130.851 47.1152 130.891 47.1178 130.927 47.1332C130.962 47.1485 130.992 47.1756 131.01 47.21C131.074 47.4248 131.181 47.6241 131.326 47.7952C131.47 47.9664 131.649 48.1057 131.85 48.2043C132.051 48.303 132.27 48.3589 132.494 48.3685C132.718 48.3781 132.941 48.3411 133.15 48.26C133.34 48.17 133.51 48.45 133.32 48.54Z" fill="#485FC4"/>
<path d="M136.93 43.45C136.742 43.9321 136.445 44.3639 136.061 44.7111C135.678 45.0582 135.218 45.3112 134.72 45.45C134.54 45.51 134.47 45.22 134.65 45.17C135.105 45.0424 135.523 44.8092 135.87 44.4895C136.218 44.1697 136.485 43.7725 136.65 43.33C136.72 43.16 137 43.23 136.93 43.41V43.45Z" fill="#485FC4"/>
<path d="M134.74 40.4C134.228 40.4449 133.712 40.3905 133.22 40.24C132.292 39.9979 131.31 40.061 130.42 40.42C130.23 40.51 130.06 40.23 130.25 40.13C130.849 39.8503 131.511 39.7298 132.17 39.78C132.981 39.9813 133.814 40.0821 134.65 40.08C134.689 40.0776 134.727 40.0885 134.759 40.111C134.791 40.1335 134.814 40.1662 134.824 40.2036C134.835 40.2411 134.832 40.281 134.817 40.3167C134.802 40.3524 134.774 40.3818 134.74 40.4Z" fill="#485FC4"/>
<path d="M131.21 45.4C131.006 45.3341 130.817 45.2249 130.659 45.08C130.5 44.9351 130.374 44.7577 130.29 44.56C130.2 44.36 130.49 44.19 130.57 44.39C130.635 44.5506 130.734 44.6953 130.86 44.8143C130.986 44.9334 131.136 45.024 131.3 45.08C131.49 45.15 131.41 45.47 131.21 45.4Z" fill="#485FC4"/>
<path d="M131.11 61.55C131.756 61.55 132.28 61.0217 132.28 60.37C132.28 59.7183 131.756 59.19 131.11 59.19C130.464 59.19 129.94 59.7183 129.94 60.37C129.94 61.0217 130.464 61.55 131.11 61.55Z" fill="#F7D4BC"/>
<path d="M30.2255 50.6829C30.6451 50.6705 30.975 50.3158 30.9623 49.8907C30.9497 49.4657 30.5994 49.1312 30.1798 49.1436C29.7603 49.1561 29.4304 49.5108 29.443 49.9358C29.4556 50.3609 29.806 50.6954 30.2255 50.6829Z" fill="#38517B"/>
<path d="M30.695 54.0475C31.1145 54.0351 31.4444 53.6804 31.4318 53.2553C31.4192 52.8302 31.0689 52.4957 30.6493 52.5082C30.2298 52.5206 29.8999 52.8753 29.9125 53.3004C29.9251 53.7255 30.2754 54.06 30.695 54.0475Z" fill="#38517B"/>
<path d="M31.1745 57.0619C31.594 57.0495 31.9239 56.6948 31.9113 56.2697C31.8987 55.8447 31.5484 55.5102 31.1288 55.5226C30.7093 55.5351 30.3794 55.8898 30.392 56.3148C30.4046 56.7399 30.7549 57.0744 31.1745 57.0619Z" fill="#38517B"/>
<path d="M40.7394 29.1698C40.84 28.5147 40.3949 27.9028 39.7453 27.803C39.0957 27.7033 38.4876 28.1535 38.387 28.8085C38.2864 29.4636 38.7314 30.0755 39.381 30.1752C40.0307 30.275 40.6388 29.8248 40.7394 29.1698Z" fill="#66432F"/>
<path d="M51.29 2.50999L1.54005 0.429993L0.300049 27.29L50.06 29.37L51.29 2.50999Z" fill="#2ED06E"/>
<path d="M51.29 2.50999L1.54005 0.429993L0.300049 27.29L50.06 29.37L51.29 2.50999ZM48.37 20.89C46.6144 20.8319 44.8961 21.4054 43.5272 22.5064C42.1584 23.6073 41.2298 25.1627 40.91 26.89L9.64005 25.59C9.48052 23.8466 8.69641 22.2196 7.43216 21.0087C6.16791 19.7977 4.50866 19.0843 2.76005 19L3.22005 8.91999C4.97573 8.97805 6.69402 8.40454 8.06286 7.30359C9.4317 6.20265 10.3603 4.64729 10.68 2.91999L42 4.20999C42.1573 5.95515 42.9404 7.58455 44.2049 8.79757C45.4693 10.0106 47.1299 10.7253 48.88 10.81L48.37 20.89Z" fill="#27B35F"/>
<path d="M30.0416 15.8896C30.594 13.5232 29.1453 11.1621 26.8057 10.6159C24.4662 10.0698 22.1218 11.5454 21.5693 13.9118C21.0169 16.2783 22.4657 18.6394 24.8052 19.1855C27.1447 19.7317 29.4891 18.256 30.0416 15.8896Z" fill="#27B35F"/>
<defs>
<linearGradient id="paint0_linear" x1="78.98" y1="96.44" x2="23.49" y2="96.44" gradientUnits="userSpaceOnUse">
<stop stop-opacity="0"/>
<stop offset="0.14" stop-opacity="0.05"/>
<stop offset="1" stop-opacity="0.1"/>
</linearGradient>
<linearGradient id="paint1_linear" x1="162.46" y1="95.33" x2="127.35" y2="95.33" gradientUnits="userSpaceOnUse">
<stop stop-opacity="0"/>
<stop offset="0.15" stop-opacity="0.05"/>
<stop offset="1" stop-opacity="0.1"/>
</linearGradient>
</defs>
</svg>
