<?xml version="1.0" standalone="no"?>
<!DOCTYPE svg PUBLIC "-//W3C//DTD SVG 20010904//EN"
 "http://www.w3.org/TR/2001/REC-SVG-20010904/DTD/svg10.dtd">
<svg version="1.0" xmlns="http://www.w3.org/2000/svg"
 width="516.000000pt" height="516.000000pt" viewBox="0 0 516.000000 516.000000"
 preserveAspectRatio="xMidYMid meet">

<g transform="translate(0.000000,516.000000) scale(0.100000,-0.100000)"
fill="#000000" stroke="none">
<path d="M2449 4059 c-171 -14 -376 -72 -530 -149 -318 -160 -593 -460 -720
-785 -216 -554 -84 -1183 336 -1596 711 -700 1871 -528 2352 349 226 410 234
942 23 1363 -130 257 -352 489 -607 635 -249 142 -559 208 -854 183z m391
-139 c554 -107 979 -538 1085 -1100 25 -128 25 -352 0 -480 -42 -226 -151
-463 -282 -619 l-29 -33 -75 46 c-103 62 -258 123 -414 161 l-130 32 0 99 0
99 57 120 c32 66 64 147 72 180 8 33 27 94 41 135 34 95 43 201 22 251 -13 32
-13 46 4 145 43 253 7 411 -122 528 -71 64 -130 91 -310 140 -197 54 -290 90
-359 140 -99 71 -138 45 -153 -102 l-10 -97 -59 -35 c-83 -48 -170 -144 -198
-217 -32 -83 -36 -217 -12 -357 18 -99 18 -113 5 -145 -21 -50 -12 -158 22
-252 14 -41 34 -105 44 -144 11 -38 44 -122 75 -185 l57 -114 -3 -95 -3 -94
-130 -32 c-158 -39 -315 -100 -415 -161 l-75 -46 -28 34 c-49 57 -117 165
-162 256 -156 311 -183 689 -74 1026 155 475 570 836 1059 920 52 9 113 18
135 20 75 7 270 -5 365 -24z m-428 -301 c70 -36 164 -68 306 -105 156 -41 221
-70 275 -122 96 -92 116 -207 77 -441 -20 -122 -21 -134 -6 -156 24 -37 19
-110 -15 -205 -16 -47 -34 -107 -39 -134 -5 -26 -37 -107 -72 -180 l-62 -131
-4 -113 c-6 -174 16 -206 164 -237 174 -35 399 -122 473 -182 l24 -19 -54 -48
c-172 -152 -393 -260 -640 -313 -118 -25 -400 -25 -518 0 -247 53 -475 165
-641 314 l-52 47 23 19 c74 60 299 147 473 182 148 31 170 63 165 237 l-4 113
-63 131 c-34 72 -67 153 -72 180 -5 27 -23 87 -39 134 -34 95 -39 168 -15 205
15 22 14 34 -6 156 -47 282 -8 392 174 494 36 20 71 46 77 57 6 12 14 47 16
79 3 33 8 59 10 59 2 0 22 -10 45 -21z"/>
</g>
</svg>
