<?xml version="1.0" standalone="no"?>
<!DOCTYPE svg PUBLIC "-//W3C//DTD SVG 20010904//EN"
 "http://www.w3.org/TR/2001/REC-SVG-20010904/DTD/svg10.dtd">
<svg version="1.0" xmlns="http://www.w3.org/2000/svg"
 width="520.000000pt" height="520.000000pt" viewBox="0 0 520.000000 520.000000"
 preserveAspectRatio="xMidYMid meet">

<g transform="translate(0.000000,520.000000) scale(0.100000,-0.100000)"
fill="#000000" stroke="none">
<path d="M2580 4560 c-40 -25 -440 -437 -440 -453 0 -36 19 -57 53 -57 28 0
52 20 189 157 l158 158 0 -570 c0 -629 -1 -615 60 -615 61 0 60 -14 60 615 l0
570 158 -158 c137 -137 161 -157 189 -157 34 0 53 21 53 57 0 24 -436 463
-460 463 -3 0 -12 -5 -20 -10z"/>
<path d="M870 2080 l0 -980 1730 0 1730 0 0 980 0 980 -1730 0 -1730 0 0 -980z
m3340 0 l0 -860 -1610 0 -1610 0 0 860 0 860 1610 0 1610 0 0 -860z"/>
<path d="M1361 2827 c-25 -12 -35 -33 -46 -100 -9 -57 -61 -103 -132 -118
-100 -21 -93 18 -93 -529 0 -547 -7 -508 93 -529 71 -15 123 -61 132 -118 11
-67 21 -88 46 -100 35 -18 2443 -18 2478 0 25 12 35 33 46 100 9 57 61 103
132 118 100 21 93 -18 93 529 0 547 7 508 -93 529 -71 15 -123 61 -132 118
-11 67 -21 88 -46 100 -19 10 -294 13 -1239 13 -945 0 -1220 -3 -1239 -13z
m1395 -152 c124 -60 220 -188 276 -365 20 -65 23 -95 23 -230 0 -135 -3 -165
-24 -230 -18 -60 -53 -143 -66 -158 -1 -1 -28 13 -59 32 -32 19 -71 38 -87 41
-35 8 -38 37 -10 93 34 67 51 149 56 264 9 200 -26 249 -208 299 -40 11 -89
32 -110 46 -32 22 -41 24 -62 15 -28 -13 -49 -56 -42 -84 3 -10 1 -18 -4 -18
-19 0 -78 -63 -93 -100 -32 -81 -7 -319 45 -422 28 -56 25 -85 -10 -93 -16 -3
-55 -22 -86 -41 -32 -19 -59 -34 -60 -34 -7 0 -57 125 -72 181 -14 48 -18 101
-18 214 0 129 3 160 23 225 52 167 149 299 261 359 115 61 210 62 327 6z
m-531 -17 c-131 -146 -205 -354 -205 -578 0 -224 74 -432 205 -578 l47 -52
-414 0 -413 0 -19 47 c-28 66 -86 126 -151 154 l-55 24 0 405 0 405 55 24 c65
28 123 88 151 154 l19 47 413 0 414 0 -47 -52z m1549 5 c28 -66 86 -126 151
-154 l55 -24 0 -405 0 -405 -55 -24 c-65 -28 -123 -88 -151 -154 l-19 -47
-413 0 -414 0 47 52 c131 146 205 354 205 578 0 224 -74 432 -205 578 l-47 52
414 0 413 0 19 -47z m-1145 -352 c38 -11 78 -24 89 -30 32 -17 44 -68 32 -132
-6 -29 -8 -70 -5 -89 5 -33 0 -53 -62 -215 -19 -51 -12 -119 16 -149 11 -12
43 -28 69 -34 26 -7 67 -25 90 -41 l43 -28 -46 -42 c-26 -24 -76 -57 -113 -74
-55 -26 -78 -31 -142 -31 -64 0 -87 5 -142 31 -37 17 -87 50 -113 74 l-46 42
43 28 c23 16 64 34 90 41 99 25 123 102 70 224 -39 92 -45 115 -50 209 -7 151
-8 146 24 171 16 13 38 32 49 42 26 25 23 25 104 3z"/>
<path d="M1568 2250 c-72 -22 -128 -96 -128 -170 0 -113 121 -204 225 -170 78
26 127 92 127 170 0 117 -113 203 -224 170z m78 -118 c6 -4 16 -17 23 -29 18
-36 -11 -82 -51 -83 -24 0 -58 35 -58 60 0 40 55 73 86 52z"/>
<path d="M3520 2245 c-73 -33 -112 -91 -112 -165 0 -78 49 -144 127 -170 104
-34 225 57 225 170 0 120 -135 212 -240 165z m100 -125 c28 -28 26 -66 -5 -86
-50 -33 -111 18 -84 69 23 42 57 49 89 17z"/>
</g>
</svg>
