<?xml version="1.0" standalone="no"?>
<!DOCTYPE svg PUBLIC "-//W3C//DTD SVG 20010904//EN"
 "http://www.w3.org/TR/2001/REC-SVG-20010904/DTD/svg10.dtd">
<svg version="1.0" xmlns="http://www.w3.org/2000/svg"
 width="524.000000pt" height="524.000000pt" viewBox="0 0 524.000000 524.000000"
 preserveAspectRatio="xMidYMid meet">

<g transform="translate(0.000000,524.000000) scale(0.100000,-0.100000)"
fill="#000000" stroke="none">
<path d="M2685 4312 l-410 -237 -505 -5 -505 -5 -51 -27 c-59 -31 -108 -84
-138 -147 l-21 -46 0 -1285 0 -1285 28 -57 c32 -64 80 -111 146 -142 l46 -21
1345 0 1345 0 46 21 c66 31 114 78 146 142 l28 57 3 360 3 360 31 20 c17 11
41 33 52 48 20 27 21 41 21 267 0 226 -1 240 -21 267 -11 15 -35 37 -52 48
l-31 20 -3 360 -3 360 -28 57 c-33 67 -93 122 -159 145 l-47 17 -3 131 c-3
115 -6 136 -28 178 -27 55 -70 96 -133 129 -38 20 -61 23 -221 28 l-178 5
-137 234 c-75 129 -141 236 -146 237 -6 2 -194 -104 -420 -234z m618 -319
c120 -204 217 -374 217 -377 0 -3 -29 -6 -64 -6 l-64 0 -119 203 c-130 223
-129 222 -208 192 -32 -13 -57 -15 -92 -10 -41 6 -56 15 -101 62 -31 32 -60
53 -70 51 -9 -2 -212 -115 -450 -251 l-433 -248 -111 3 -111 3 684 391 c598
343 685 390 695 375 6 -9 108 -183 227 -388z m-486 -47 c61 -51 93 -61 190
-61 l92 0 79 -135 78 -135 -273 -3 c-150 -1 -397 -1 -549 0 l-275 3 308 177
c169 97 311 177 315 177 3 1 19 -10 35 -23z m-802 -9 c-11 -8 -144 -84 -295
-170 l-275 -157 -65 0 c-109 1 -177 45 -200 131 -20 73 25 165 95 195 45 20
769 20 740 1z m1729 -10 c71 -40 81 -63 84 -198 l4 -119 -84 0 -83 0 -75 128
c-40 70 -85 146 -98 170 l-24 42 119 0 c104 0 123 -3 157 -23z m-1149 -437
c1284 -5 1342 -6 1378 -24 44 -22 71 -56 86 -111 7 -25 11 -156 11 -357 l0
-318 -280 0 c-305 0 -322 -2 -372 -56 -44 -47 -48 -72 -48 -294 0 -222 4 -247
48 -293 53 -56 57 -57 367 -57 l286 0 -3 -342 c-3 -338 -3 -344 -26 -380 -13
-20 -40 -47 -60 -60 l-37 -23 -1290 -3 c-940 -2 -1304 0 -1343 8 -67 15 -114
59 -131 123 -8 33 -11 350 -11 1141 l0 1096 43 -23 42 -22 1340 -5z m1563
-946 c21 -15 22 -20 22 -211 0 -169 -2 -199 -17 -215 -15 -17 -38 -18 -322
-18 -168 0 -311 4 -318 8 -25 16 -33 69 -33 222 0 153 8 206 33 222 7 4 147 8
312 8 256 0 304 -2 323 -16z"/>
<path d="M1422 3364 c-26 -18 -29 -60 -8 -90 14 -19 37 -19 1146 -19 l1132 0
19 24 c25 31 24 47 -6 76 l-24 25 -1118 0 c-996 0 -1121 -2 -1141 -16z"/>
<path d="M3856 3244 c-23 -22 -29 -56 -24 -126 4 -48 9 -65 27 -79 30 -24 42
-24 75 2 24 19 26 26 26 98 0 90 -15 121 -60 121 -16 0 -36 -7 -44 -16z"/>
<path d="M3859 1621 c-22 -18 -24 -27 -24 -106 0 -96 11 -115 66 -115 44 0 59
32 59 121 0 72 -2 79 -26 98 -33 26 -45 26 -75 2z"/>
<path d="M1440 1403 c-43 -16 -54 -82 -18 -107 20 -14 145 -16 1144 -16 l1123
0 20 26 c26 33 26 45 2 75 l-19 24 -1119 2 c-615 1 -1125 -1 -1133 -4z"/>
<path d="M3670 2437 c-33 -16 -70 -73 -70 -107 0 -34 37 -91 70 -107 78 -40
170 18 170 107 0 89 -92 147 -170 107z"/>
</g>
</svg>
