<?xml version="1.0" standalone="no"?>
<!DOCTYPE svg PUBLIC "-//W3C//DTD SVG 20010904//EN"
 "http://www.w3.org/TR/2001/REC-SVG-20010904/DTD/svg10.dtd">
<svg version="1.0" xmlns="http://www.w3.org/2000/svg"
 width="520.000000pt" height="520.000000pt" viewBox="0 0 520.000000 520.000000"
 preserveAspectRatio="xMidYMid meet">

<g transform="translate(0.000000,520.000000) scale(0.100000,-0.100000)"
fill="#000000" stroke="none">
<path d="M2690 3730 l0 -130 -115 0 -115 0 0 -180 0 -180 115 0 115 0 0 -120
0 -120 -115 0 -115 0 2 -177 3 -178 113 -3 112 -3 0 -159 0 -160 175 0 175 0
0 160 0 160 233 0 232 -1 120 -159 120 -160 163 0 162 0 0 160 0 160 110 0
110 0 0 180 0 180 -110 0 -110 0 0 120 0 120 110 0 110 0 0 180 0 180 -110 0
-110 0 0 130 0 130 -180 0 -180 0 0 -130 0 -130 -253 0 -253 0 -98 130 -99
130 -158 0 -159 0 0 -130z m383 -60 l98 -130 299 0 299 0 3 128 3 127 113 3
112 3 0 -130 0 -130 113 -3 112 -3 0 -115 0 -115 -112 -3 -113 -3 0 -179 0
-180 115 0 115 0 0 -115 0 -114 -112 -3 -113 -3 -3 -163 -2 -163 -113 3 -112
3 -123 163 -123 162 -274 0 -275 0 0 -165 0 -165 -115 0 -115 0 0 165 0 165
-110 0 -110 0 0 115 0 115 110 0 110 0 0 180 0 180 -110 0 -110 0 0 120 0 120
110 0 110 0 0 130 0 130 113 0 112 0 98 -130z"/>
<path d="M2980 3121 l0 -181 186 0 185 0 -30 43 c-17 23 -77 103 -134 177
l-103 135 -52 3 -52 3 0 -180z m154 6 c47 -63 86 -117 86 -121 0 -4 -39 -5
-87 -4 l-88 3 -3 118 c-1 64 -1 117 1 117 2 0 43 -51 91 -113z"/>
<path d="M3367 3286 c4 -7 64 -88 133 -179 l125 -166 73 0 72 -1 0 180 0 180
-205 0 c-172 0 -205 -2 -198 -14z m343 -166 l0 -120 -25 0 c-20 0 -42 24 -115
120 l-91 120 116 0 115 0 0 -120z"/>
<path d="M1365 3608 c-54 -20 -108 -65 -246 -205 -150 -153 -171 -182 -194
-268 -63 -245 89 -609 434 -1038 293 -364 755 -806 1079 -1034 315 -221 560
-320 777 -311 153 6 185 24 372 211 178 179 203 219 203 333 0 83 -28 149 -87
205 -58 55 -402 320 -451 347 -59 33 -152 40 -221 17 -28 -9 -81 -40 -119 -69
-37 -29 -78 -59 -91 -66 -34 -18 -110 -16 -146 3 -16 8 -197 184 -402 389
-325 326 -373 378 -383 416 -16 61 0 105 70 197 74 98 94 155 87 241 -6 83
-22 110 -201 339 -183 235 -199 252 -261 281 -55 26 -163 32 -220 12z m148
-112 c21 -8 48 -22 59 -33 28 -25 326 -407 344 -441 8 -15 14 -47 14 -72 0
-49 -16 -81 -86 -170 -54 -70 -74 -125 -74 -209 0 -117 5 -123 431 -548 421
-419 425 -422 538 -423 91 0 129 14 227 88 76 58 93 66 140 70 34 3 63 -1 82
-11 43 -21 426 -321 451 -353 45 -57 46 -141 3 -201 -39 -54 -288 -292 -317
-303 -136 -52 -320 -17 -554 106 -267 141 -569 381 -915 729 -424 427 -695
801 -792 1095 -23 70 -28 103 -28 190 -1 97 1 109 26 150 15 25 89 107 166
183 165 165 199 183 285 153z"/>
</g>
</svg>
