<?xml version="1.0" standalone="no"?>
<!DOCTYPE svg PUBLIC "-//W3C//DTD SVG 20010904//EN"
 "http://www.w3.org/TR/2001/REC-SVG-20010904/DTD/svg10.dtd">
<svg version="1.0" xmlns="http://www.w3.org/2000/svg"
 width="518.000000pt" height="518.000000pt" viewBox="0 0 518.000000 518.000000"
 preserveAspectRatio="xMidYMid meet">

<g transform="translate(0.000000,518.000000) scale(0.100000,-0.100000)"
fill="#000000" stroke="none">
<path d="M2485 4245 c-106 -57 -1169 -680 -1256 -738 -96 -62 -123 -105 -117
-182 3 -38 12 -64 32 -89 55 -73 -62 -67 1443 -66 1479 1 1394 -3 1446 59 33
40 41 68 35 130 -9 97 22 75 -939 635 -552 321 -529 312 -644 251z m135 -122
c14 -10 302 -180 640 -379 511 -300 616 -364 618 -384 8 -52 61 -50 -1291 -50
-848 0 -1265 3 -1278 10 -24 13 -25 42 -1 62 9 9 292 176 627 373 336 197 619
364 630 371 25 18 26 18 55 -3z"/>
<path d="M1453 3080 c-21 -13 -35 -31 -42 -57 -7 -24 -11 -220 -11 -546 0
-545 1 -555 51 -591 20 -13 54 -16 211 -16 l188 0 32 29 33 29 3 541 c2 472 1
545 -13 571 -28 53 -55 60 -247 60 -154 0 -177 -2 -205 -20z m317 -595 l0
-475 -110 0 -110 0 0 475 0 475 110 0 110 0 0 -475z"/>
<path d="M2368 3071 l-33 -29 -3 -529 c-2 -290 0 -543 3 -562 4 -18 17 -44 30
-57 24 -24 27 -24 225 -24 198 0 201 0 225 24 13 13 26 39 30 57 3 19 5 272 3
562 l-3 529 -33 29 -32 29 -190 0 -190 0 -32 -29z m332 -586 l0 -475 -110 0
-110 0 0 475 0 475 110 0 110 0 0 -475z"/>
<path d="M3311 3086 c-51 -28 -50 -23 -51 -599 0 -575 0 -580 49 -607 12 -6
100 -10 214 -10 191 0 195 0 220 24 14 13 28 39 32 57 3 19 5 272 3 562 l-3
529 -33 29 -32 29 -188 0 c-136 -1 -194 -4 -211 -14z m319 -601 l0 -475 -110
0 -110 0 0 475 0 475 110 0 110 0 0 -475z"/>
<path d="M1151 1754 c-40 -33 -51 -77 -51 -206 0 -127 15 -174 63 -204 31 -19
62 -19 1429 -19 l1397 0 28 21 c50 37 63 77 63 199 0 132 -11 175 -51 209
l-31 26 -1408 0 -1408 0 -31 -26z m2779 -204 l0 -80 -1340 0 -1340 0 0 80 0
80 1340 0 1340 0 0 -80z"/>
</g>
</svg>
