<?xml version="1.0" standalone="no"?>
<!DOCTYPE svg PUBLIC "-//W3C//DTD SVG 20010904//EN"
 "http://www.w3.org/TR/2001/REC-SVG-20010904/DTD/svg10.dtd">
<svg version="1.0" xmlns="http://www.w3.org/2000/svg"
 width="520.000000pt" height="520.000000pt" viewBox="0 0 520.000000 520.000000"
 preserveAspectRatio="xMidYMid meet">

<g transform="translate(0.000000,520.000000) scale(0.100000,-0.100000)"
fill="#000000" stroke="none">
<path d="M870 3220 l0 -980 1730 0 1730 0 0 980 0 980 -1730 0 -1730 0 0 -980z
m3340 0 l0 -860 -1610 0 -1610 0 0 860 0 860 1610 0 1610 0 0 -860z"/>
<path d="M1341 3957 c-6 -8 -15 -37 -21 -65 -17 -90 -56 -128 -150 -147 -42
-9 -58 -17 -67 -36 -10 -18 -13 -141 -13 -495 0 -537 -5 -507 84 -523 81 -15
132 -66 147 -147 17 -92 -111 -84 1279 -84 1390 0 1262 -8 1279 84 15 81 66
132 147 147 89 16 84 -14 84 523 0 354 -3 477 -13 495 -9 19 -25 27 -67 36
-94 19 -133 57 -150 147 -6 28 -15 57 -21 65 -17 20 -2501 20 -2518 0z m890
-153 c-135 -154 -199 -323 -208 -549 -4 -105 -1 -148 15 -225 33 -162 100
-299 195 -397 l41 -43 -416 0 -415 0 -18 47 c-23 61 -97 135 -158 158 l-47 18
0 407 0 407 39 12 c58 17 134 90 162 156 l24 55 413 0 414 0 -41 -46z m523 13
c84 -39 174 -134 225 -239 63 -129 76 -189 76 -363 0 -130 -3 -160 -24 -225
-18 -60 -53 -143 -66 -158 -1 -1 -28 13 -59 32 -32 19 -71 38 -87 41 -34 8
-39 37 -13 87 40 77 55 144 59 268 5 119 3 128 -21 178 -30 61 -71 88 -184
122 -41 12 -93 32 -114 45 -31 19 -43 21 -62 13 -26 -12 -49 -60 -40 -83 3 -8
1 -15 -4 -15 -20 0 -79 -62 -94 -100 -12 -31 -15 -65 -11 -162 4 -122 19 -189
59 -266 26 -50 21 -79 -13 -87 -16 -3 -55 -22 -87 -41 -31 -19 -58 -33 -59
-32 -13 15 -48 98 -66 158 -21 65 -24 95 -24 225 0 166 12 230 66 345 60 128
150 221 256 266 82 34 202 31 287 -9z m1025 -22 c28 -66 104 -139 162 -156
l39 -12 0 -407 0 -407 -47 -18 c-61 -23 -135 -97 -158 -158 l-18 -47 -415 0
-416 0 41 43 c133 139 213 356 213 584 0 217 -67 415 -191 563 l-59 70 412 0
413 0 24 -55z m-1146 -346 c87 -26 121 -55 120 -101 -5 -185 -9 -205 -67 -353
-20 -51 -20 -108 -1 -145 11 -22 28 -33 63 -44 59 -17 128 -51 138 -68 10 -15
-72 -89 -130 -118 -77 -37 -154 -46 -232 -27 -96 24 -228 116 -209 146 9 16
80 51 137 67 35 11 52 22 63 44 19 37 19 94 -1 145 -50 128 -57 156 -61 235
-8 157 -9 152 22 175 16 11 38 30 49 41 27 28 25 28 109 3z"/>
<path d="M1570 3388 c-52 -15 -86 -43 -109 -91 -26 -53 -26 -99 -2 -153 77
-170 333 -112 333 75 0 81 -52 149 -130 171 -43 12 -46 11 -92 -2z m86 -133
c27 -27 26 -59 -4 -82 -57 -45 -123 36 -72 87 27 27 46 25 76 -5z"/>
<path d="M3527 3386 c-174 -63 -152 -313 29 -342 151 -24 256 146 171 275 -42
63 -131 92 -200 67z m93 -126 c51 -51 -15 -132 -72 -87 -30 23 -31 55 -4 82
30 30 49 32 76 5z"/>
<path d="M2560 2100 c-20 -20 -20 -33 -20 -592 l0 -573 -158 158 c-124 124
-163 157 -184 157 -34 0 -60 -26 -56 -56 4 -29 433 -464 458 -464 25 0 454
435 458 464 4 30 -22 56 -56 56 -21 0 -60 -33 -184 -157 l-158 -158 0 573 c0
559 0 572 -20 592 -11 11 -29 20 -40 20 -11 0 -29 -9 -40 -20z"/>
</g>
</svg>
