<?xml version="1.0" standalone="no"?>
<!DOCTYPE svg PUBLIC "-//W3C//DTD SVG 20010904//EN"
 "http://www.w3.org/TR/2001/REC-SVG-20010904/DTD/svg10.dtd">
<svg version="1.0" xmlns="http://www.w3.org/2000/svg"
 width="520.000000pt" height="520.000000pt" viewBox="0 0 520.000000 520.000000"
 preserveAspectRatio="xMidYMid meet">

<g transform="translate(0.000000,520.000000) scale(0.100000,-0.100000)"
fill="#000000" stroke="none">
<path d="M2535 4366 c-179 -35 -337 -120 -462 -247 -75 -76 -103 -113 -150
-197 -19 -35 -37 -62 -39 -60 -1 2 -30 85 -64 183 -33 99 -68 186 -77 193 -27
20 -61 14 -79 -13 -16 -24 -13 -35 82 -316 75 -222 104 -295 121 -306 20 -13
33 -11 140 27 65 23 189 66 277 96 87 29 169 60 182 69 45 29 25 98 -29 97
-12 0 -116 -32 -231 -71 -115 -40 -210 -70 -212 -68 -8 8 67 147 111 206 93
122 258 230 410 267 94 23 268 24 355 1 242 -63 446 -250 526 -482 32 -95 47
-115 86 -115 30 0 68 30 68 54 0 27 -43 152 -72 211 -110 220 -304 380 -545
451 -109 32 -290 41 -398 20z"/>
<path d="M870 2490 l0 -980 1730 0 1730 0 0 980 0 980 -1730 0 -1730 0 0 -980z
m3340 0 l0 -860 -1610 0 -1610 0 0 860 0 860 1610 0 1610 0 0 -860z"/>
<path d="M1353 3235 c-13 -9 -25 -31 -28 -53 -8 -50 -41 -113 -70 -135 -13 -9
-48 -22 -77 -27 -94 -18 -88 16 -88 -529 0 -539 -4 -514 76 -525 89 -12 137
-58 154 -148 6 -28 15 -57 21 -65 17 -20 2501 -20 2518 0 6 8 15 37 21 65 17
90 65 136 154 148 80 11 76 -14 76 525 0 545 6 511 -88 529 -29 5 -64 18 -77
27 -29 22 -62 85 -70 135 -11 73 88 68 -1275 68 -1083 0 -1228 -2 -1247 -15z
m1332 -120 c154 -41 281 -185 347 -395 20 -65 23 -96 23 -225 0 -162 -12 -225
-61 -336 l-26 -57 -71 39 c-40 21 -80 39 -89 39 -24 0 -23 40 1 88 34 68 52
152 56 265 5 136 -4 176 -55 227 -30 30 -55 43 -112 59 -40 12 -101 35 -135
53 -59 30 -63 31 -87 15 -16 -11 -28 -30 -32 -54 -5 -26 -18 -48 -44 -70 -58
-51 -71 -93 -65 -227 4 -116 22 -200 56 -268 24 -48 25 -88 2 -88 -10 0 -50
-18 -90 -39 l-71 -39 -26 57 c-49 111 -61 174 -61 336 0 170 16 240 83 370 42
80 146 191 207 220 96 45 161 53 250 30z m-454 -40 c-146 -159 -218 -376 -208
-625 9 -209 70 -379 188 -519 l59 -71 -412 0 -413 0 -24 55 c-28 66 -104 139
-162 156 l-39 12 0 407 0 407 47 18 c61 23 135 97 158 158 l18 47 415 0 415 0
-42 -45z m1544 -2 c23 -61 97 -135 158 -158 l47 -18 0 -407 0 -407 -39 -12
c-58 -17 -134 -90 -162 -156 l-24 -55 -414 0 -414 0 42 45 c129 140 199 323
208 545 10 249 -62 466 -208 625 l-42 45 415 0 415 0 18 -47z m-1071 -376 c44
-16 59 -63 46 -138 -6 -34 -8 -73 -5 -89 6 -29 -15 -106 -55 -194 -26 -57 -24
-134 5 -166 9 -10 39 -26 66 -33 26 -8 69 -27 95 -42 l48 -28 -49 -44 c-156
-141 -354 -141 -510 0 l-49 44 48 28 c26 15 69 34 95 42 62 18 83 41 89 101 3
39 -2 63 -26 118 -39 92 -45 115 -50 209 -7 151 -8 147 22 169 16 12 40 32 54
46 l26 26 60 -19 c34 -10 74 -23 90 -30z"/>
<path d="M1545 2651 c-48 -22 -69 -44 -90 -94 -21 -50 -19 -93 6 -144 80 -165
331 -107 331 77 0 99 -82 181 -182 180 -14 0 -43 -9 -65 -19z m107 -113 c30
-24 31 -56 4 -83 -30 -30 -49 -32 -76 -5 -27 27 -26 65 2 84 27 19 49 20 70 4z"/>
<path d="M3526 2660 c-35 -11 -82 -54 -103 -94 -8 -16 -15 -50 -15 -76 0 -184
251 -242 331 -77 26 53 26 99 2 152 -38 84 -125 122 -215 95z m92 -126 c28
-19 29 -57 2 -84 -27 -27 -46 -25 -76 5 -18 19 -23 31 -19 48 14 45 54 59 93
31z"/>
<path d="M1862 1373 c-13 -12 -54 -118 -117 -305 -94 -278 -97 -289 -81 -313
18 -27 52 -33 79 -12 9 6 44 93 77 192 34 98 62 181 64 182 2 2 24 -32 49 -74
93 -160 207 -266 372 -347 155 -77 218 -91 395 -90 127 1 156 4 233 28 244 74
434 231 545 451 29 59 72 184 72 211 0 24 -38 54 -68 54 -39 0 -54 -20 -86
-115 -126 -364 -505 -570 -886 -479 -145 34 -313 144 -405 265 -44 59 -119
198 -111 206 2 2 97 -28 212 -68 115 -39 219 -71 231 -71 53 -1 74 68 30 96
-12 8 -109 45 -216 81 -107 37 -230 79 -274 96 -95 34 -89 34 -115 12z"/>
</g>
</svg>
