<?xml version="1.0" standalone="no"?>
<!DOCTYPE svg PUBLIC "-//W3C//DTD SVG 20010904//EN"
 "http://www.w3.org/TR/2001/REC-SVG-20010904/DTD/svg10.dtd">
<svg version="1.0" xmlns="http://www.w3.org/2000/svg"
 width="520.000000pt" height="520.000000pt" viewBox="0 0 520.000000 520.000000"
 preserveAspectRatio="xMidYMid meet">

<g transform="translate(0.000000,520.000000) scale(0.100000,-0.100000)"
fill="#000000" stroke="none">
<path d="M2327 4093 c-2 -5 -28 -80 -57 -168 -29 -88 -57 -165 -64 -171 -6 -6
-41 -23 -77 -38 l-66 -27 -167 83 -166 83 -192 -192 -193 -193 83 -167 83
-168 -30 -70 c-16 -38 -36 -74 -43 -78 -7 -4 -85 -32 -173 -61 l-160 -53 0
-273 0 -273 160 -53 c88 -29 166 -57 173 -61 7 -4 27 -39 43 -78 l30 -70 -83
-168 -83 -167 193 -192 192 -193 167 83 168 83 70 -30 c39 -16 74 -36 78 -43
4 -7 32 -85 61 -173 l53 -160 273 0 273 0 53 160 c29 88 57 166 61 173 4 7 40
27 78 43 l70 30 168 -83 167 -83 192 193 193 192 -83 167 -83 168 30 70 c16
39 36 74 43 78 7 4 85 32 173 61 l160 53 0 273 0 273 -160 53 c-88 29 -166 57
-173 61 -7 4 -27 40 -43 78 l-30 70 83 168 83 167 -193 192 -192 193 -167 -83
-168 -83 -70 30 c-38 16 -74 36 -78 43 -4 7 -32 85 -61 173 l-53 160 -271 3
c-149 1 -273 -1 -275 -5z m510 -299 l54 -161 42 -12 c23 -7 76 -28 118 -48
l76 -35 150 75 150 76 131 -132 130 -132 -75 -149 -75 -149 35 -76 c20 -42 41
-95 48 -118 l12 -42 161 -54 161 -54 0 -183 0 -183 -161 -54 -161 -54 -12 -42
c-7 -23 -28 -76 -48 -118 l-35 -76 75 -150 76 -150 -132 -131 -132 -130 -149
75 -149 75 -76 -35 c-42 -20 -95 -41 -118 -48 l-42 -12 -54 -161 -54 -161
-183 0 -183 0 -54 161 -54 161 -42 12 c-23 7 -76 28 -118 48 l-76 35 -149 -75
-149 -75 -132 130 -132 131 76 150 75 150 -35 76 c-20 42 -41 95 -48 118 l-12
42 -161 54 -161 54 0 183 0 183 161 54 161 54 12 42 c7 23 28 76 48 118 l35
76 -75 150 -76 150 132 131 132 130 149 -75 149 -75 76 35 c42 20 95 41 118
48 l42 12 52 156 c28 86 54 159 56 164 2 4 86 6 185 5 l181 -3 54 -161z"/>
<path d="M2520 3059 c-136 -22 -280 -132 -340 -261 -183 -393 225 -801 618
-618 181 84 292 292 262 488 -32 199 -193 361 -390 392 -73 11 -74 11 -150 -1z
m216 -163 c205 -94 254 -366 94 -526 -127 -127 -333 -127 -460 0 -127 127
-127 333 -1 459 99 99 241 125 367 67z"/>
</g>
</svg>
